<!DOCTYPE svg PUBLIC "-//W3C//DTD SVG 1.1//EN" "http://www.w3.org/Graphics/SVG/1.1/DTD/svg11.dtd">
<!-- Uploaded to: SVG Repo, www.svgrepo.com, Transformed by: SVG Repo Mixer Tools -->
<svg fill="#4a87bf" version="1.1" id="Capa_1" xmlns="http://www.w3.org/2000/svg" xmlns:xlink="http://www.w3.org/1999/xlink" width="256px" height="256px" viewBox="0 0 92.903 92.904" xml:space="preserve" stroke="#4a87bf">
<g id="SVGRepo_bgCarrier" stroke-width="0"/>
<g id="SVGRepo_tracerCarrier" stroke-linecap="round" stroke-linejoin="round" stroke="#c3c520" stroke-width="7.246434000000001"> <g> <g> <path d="M18.604,63C12.415,62.185,6.227,61.369,0,60.548c0.475-1.148,0.918-2.243,1.379-3.329 c1.008-2.374,2.012-4.748,3.039-7.111c1.02-2.341,2.047-4.679,3.115-6.997c0.838-1.815,1.699-3.621,2.637-5.385 c0.807-1.518,1.697-2.995,2.623-4.445c0.48-0.753,1.123-1.395,1.879-1.91c0.895-0.609,1.914-0.826,2.949-0.987 c2.186-0.34,4.387-0.457,6.596-0.45c0.957,0.002,1.916-0.047,2.873-0.026c1.088,0.024,2.174,0.101,3.35,0.158 c-1.734,0.632-2.787,1.881-3.641,3.352c-1.242,2.144-1.91,4.505-2.527,6.87c-0.969,3.697-1.834,7.419-2.752,11.129 c-0.934,3.773-1.883,7.543-2.824,11.314C18.677,62.808,18.645,62.881,18.604,63z"/> <path d="M57.448,47.556c-0.199-0.001-0.343-0.002-0.486-0.003c-4.559-0.038-9.116-0.088-13.676-0.1 c-0.57-0.001-0.943-0.25-1.336-0.571c-1.68-1.375-3.338-2.774-5.051-4.106c-2.262-1.759-4.557-3.476-6.859-5.182 c-1.145-0.849-2.338-1.633-3.52-2.454c0.723-1.513,1.539-2.992,2.988-3.999c0.791-0.548,1.725-0.711,2.668-0.704 c0.68,0.006,1.252,0.14,1.916,0.269c1.166,0.226,2.256,0.779,3.283,1.366c1.924,1.097,3.652,2.466,5.348,3.876 c2.143,1.783,4.258,3.602,6.414,5.37c1.988,1.633,4,3.24,6.033,4.816C55.857,46.665,56.646,47.063,57.448,47.556z"/> <path d="M49.104,40.806c0.836-1.042,1.591-2.071,2.439-3.012c0.629-0.697,1.553-0.856,2.443-0.854 c2.105,0.003,4.209,0.077,6.314,0.116c0.836,0.016,1.672,0.016,2.608,0.023c-0.313,0.476-0.552,0.837-0.789,1.2 c-0.905,1.385-1.367,2.931-1.646,4.543c-0.162,0.933-0.295,1.873-0.517,2.792c-0.155,0.654-0.432,1.292-1.082,1.624 c-0.187,0.096-0.461,0.085-0.678,0.04c-0.899-0.184-1.672-0.668-2.39-1.201c-1.649-1.229-3.26-2.513-4.881-3.782 C50.35,41.84,49.788,41.364,49.104,40.806z"/> <path d="M62.001,39.078c0.39-0.591,0.759-1.166,1.146-1.728c0.037-0.056,0.184-0.069,0.271-0.055 c1.716,0.278,3.427,0.569,5.14,0.844c1.858,0.298,3.723,0.569,5.58,0.877c1.778,0.296,3.553,0.628,5.33,0.939 c1.58,0.277,3.164,0.537,4.741,0.824c1.304,0.237,2.601,0.511,3.9,0.757c1.508,0.287,3.02,0.561,4.526,0.843 c0.064,0.011,0.121,0.047,0.269,0.107c-1.688-0.014-3.302,0.084-4.892-0.066c-2.535-0.241-5.053-0.656-7.58-0.983 c-2.541-0.328-5.086-0.637-7.629-0.958c-2.029-0.255-4.059-0.511-6.088-0.773C65.167,39.508,63.618,39.295,62.001,39.078z"/> </g> </g> </g>
<g id="SVGRepo_iconCarrier"> <g> <g> <path d="M18.604,63C12.415,62.185,6.227,61.369,0,60.548c0.475-1.148,0.918-2.243,1.379-3.329 c1.008-2.374,2.012-4.748,3.039-7.111c1.02-2.341,2.047-4.679,3.115-6.997c0.838-1.815,1.699-3.621,2.637-5.385 c0.807-1.518,1.697-2.995,2.623-4.445c0.48-0.753,1.123-1.395,1.879-1.91c0.895-0.609,1.914-0.826,2.949-0.987 c2.186-0.34,4.387-0.457,6.596-0.45c0.957,0.002,1.916-0.047,2.873-0.026c1.088,0.024,2.174,0.101,3.35,0.158 c-1.734,0.632-2.787,1.881-3.641,3.352c-1.242,2.144-1.91,4.505-2.527,6.87c-0.969,3.697-1.834,7.419-2.752,11.129 c-0.934,3.773-1.883,7.543-2.824,11.314C18.677,62.808,18.645,62.881,18.604,63z"/> <path d="M57.448,47.556c-0.199-0.001-0.343-0.002-0.486-0.003c-4.559-0.038-9.116-0.088-13.676-0.1 c-0.57-0.001-0.943-0.25-1.336-0.571c-1.68-1.375-3.338-2.774-5.051-4.106c-2.262-1.759-4.557-3.476-6.859-5.182 c-1.145-0.849-2.338-1.633-3.52-2.454c0.723-1.513,1.539-2.992,2.988-3.999c0.791-0.548,1.725-0.711,2.668-0.704 c0.68,0.006,1.252,0.14,1.916,0.269c1.166,0.226,2.256,0.779,3.283,1.366c1.924,1.097,3.652,2.466,5.348,3.876 c2.143,1.783,4.258,3.602,6.414,5.37c1.988,1.633,4,3.24,6.033,4.816C55.857,46.665,56.646,47.063,57.448,47.556z"/> <path d="M49.104,40.806c0.836-1.042,1.591-2.071,2.439-3.012c0.629-0.697,1.553-0.856,2.443-0.854 c2.105,0.003,4.209,0.077,6.314,0.116c0.836,0.016,1.672,0.016,2.608,0.023c-0.313,0.476-0.552,0.837-0.789,1.2 c-0.905,1.385-1.367,2.931-1.646,4.543c-0.162,0.933-0.295,1.873-0.517,2.792c-0.155,0.654-0.432,1.292-1.082,1.624 c-0.187,0.096-0.461,0.085-0.678,0.04c-0.899-0.184-1.672-0.668-2.39-1.201c-1.649-1.229-3.26-2.513-4.881-3.782 C50.35,41.84,49.788,41.364,49.104,40.806z"/> <path d="M62.001,39.078c0.39-0.591,0.759-1.166,1.146-1.728c0.037-0.056,0.184-0.069,0.271-0.055 c1.716,0.278,3.427,0.569,5.14,0.844c1.858,0.298,3.723,0.569,5.58,0.877c1.778,0.296,3.553,0.628,5.33,0.939 c1.58,0.277,3.164,0.537,4.741,0.824c1.304,0.237,2.601,0.511,3.9,0.757c1.508,0.287,3.02,0.561,4.526,0.843 c0.064,0.011,0.121,0.047,0.269,0.107c-1.688-0.014-3.302,0.084-4.892-0.066c-2.535-0.241-5.053-0.656-7.58-0.983 c-2.541-0.328-5.086-0.637-7.629-0.958c-2.029-0.255-4.059-0.511-6.088-0.773C65.167,39.508,63.618,39.295,62.001,39.078z"/> </g> </g> </g>
</svg>